<svg width="16" height="15" viewBox="0 0 16 15" fill="none" xmlns="http://www.w3.org/2000/svg">
<path fill-rule="evenodd" clip-rule="evenodd" d="M2.93383 0C1.23836 0 0 1.59915 0 3.38571V11.6143C0 12.6253 0.384865 13.5496 1.01698 14.1791C1.5223 14.6823 2.19104 15 2.93383 15H10.5064C11.5095 15 12.443 14.4685 12.9815 13.5908L15.6189 9.29237L15.6307 9.26915C16.0691 8.4065 16.1505 7.52046 15.6934 6.82367C15.4032 6.38138 14.957 6.11164 14.4471 5.97878C14.2996 4.33675 13.1139 2.93878 11.5287 2.93878H8.2142C7.78393 2.93878 7.35103 2.73215 7.02247 2.32846L6.91763 2.19964C6.81301 2.0711 6.72138 1.92486 6.64611 1.76399C6.15203 0.708058 5.18345 0 4.08023 0H2.93383ZM11.5287 4.22449C12.2817 4.22449 13.0142 4.88063 13.1854 5.87755H5.79086C5.34514 5.87755 4.8259 5.96586 4.35814 6.1898C3.89037 6.41375 3.43241 6.79615 3.20777 7.39998L1.28805 12.1138C1.25655 11.9546 1.23965 11.7874 1.23965 11.6143V3.38571C1.23965 2.1426 2.07331 1.28571 2.93383 1.28571H4.08023C4.64617 1.28571 5.21535 1.65105 5.53085 2.32533C5.6497 2.57933 5.7971 2.8161 5.97035 3.02898L6.07519 3.15779C6.61884 3.82576 7.38822 4.22449 8.2142 4.22449H11.5287ZM5.57841 8.57143C5.23609 8.57143 4.95859 8.85925 4.95859 9.21429C4.95859 9.56933 5.23609 9.85714 5.57841 9.85714H12.1899C12.5322 9.85714 12.8097 9.56933 12.8097 9.21429C12.8097 8.85925 12.5322 8.57143 12.1899 8.57143H5.57841Z" fill="#808080"/>
</svg>
