<svg viewBox="0 0 24 24" fill="none"
    xmlns="http://www.w3.org/2000/svg">
    <path d="M22.9757 0.808846L22.9468 0.782499C22.3944 0.277916 21.6784 0 20.9306 0C20.0922 0 19.2873 0.354894 18.7221 0.973601L8.03531 12.6735C7.9379 12.7801 7.86402 12.9059 7.81834 13.0429L6.56173 16.81C6.41645 17.2455 6.48937 17.7272 6.75676 18.0984C7.02628 18.4725 7.46049 18.6959 7.91836 18.6959C8.11641 18.6959 8.31006 18.6551 8.49366 18.5748L12.132 16.9831C12.2643 16.9252 12.383 16.8403 12.4803 16.7337L23.1672 5.03386C24.2792 3.81646 24.1935 1.92127 22.9757 0.808846ZM8.96936 16.1141L9.70673 13.9036L9.76891 13.8355L11.1665 15.112L11.1043 15.1801L8.96936 16.1141ZM21.6434 3.64201L12.5583 13.5883L11.1608 12.3118L20.2459 2.36545C20.4236 2.17091 20.6667 2.06373 20.9306 2.06373C21.1621 2.06373 21.3838 2.14986 21.5554 2.30657L21.5842 2.33291C21.9615 2.67749 21.988 3.26476 21.6434 3.64201Z" fill="currentColor"/>
    <path d="M20.9024 9.51998C20.3325 9.51998 19.8705 9.98198 19.8705 10.5519V19.3122C19.8705 20.7592 18.6933 21.9364 17.2463 21.9364H4.74016C3.29314 21.9364 2.11598 20.7592 2.11598 19.3122V6.90764C2.11598 5.46069 3.2932 4.28346 4.74016 4.28346H13.7922C14.362 4.28346 14.824 3.82146 14.824 3.25159C14.824 2.68173 14.362 2.21973 13.7922 2.21973H4.74016C2.15519 2.21973 0.0522461 4.32274 0.0522461 6.90764V19.3121C0.0522461 21.897 2.15526 24 4.74016 24H17.2463C19.8312 24 21.9342 21.897 21.9342 19.3121V10.5519C21.9342 9.98198 21.4722 9.51998 20.9024 9.51998Z" fill="currentColor"/>
</svg>
