<svg width="16" height="15" viewBox="0 0 16 15" fill="none" xmlns="http://www.w3.org/2000/svg">
<path d="M8.98317 1.06693C8.88418 0.894492 8.74144 0.751228 8.56937 0.651601C8.39731 0.551974 8.202 0.499512 8.00317 0.499512C7.80434 0.499512 7.60903 0.551974 7.43696 0.651601C7.26489 0.751228 7.12216 0.894492 7.02317 1.06693L0.166167 12.7339C0.0608771 12.9095 0.00362771 13.1097 0.000166804 13.3144C-0.0032941 13.5191 0.0471552 13.7211 0.14645 13.9001C0.245745 14.0792 0.390391 14.2289 0.565867 14.3344C0.741343 14.4398 0.941474 14.4973 1.14617 14.5009H14.8592C15.0639 14.4973 15.264 14.4398 15.4395 14.3344C15.6149 14.2289 15.7596 14.0792 15.8589 13.9001C15.9582 13.7211 16.0086 13.5191 16.0052 13.3144C16.0017 13.1097 15.9445 12.9095 15.8392 12.7339L8.98317 1.06693ZM8.00117 4.50093C8.12779 4.50022 8.25314 4.52624 8.36903 4.57729C8.48491 4.62834 8.58871 4.70327 8.67366 4.79718C8.7586 4.89109 8.82277 5.00187 8.86198 5.12228C8.90118 5.24268 8.91454 5.37001 8.90117 5.49593L8.55117 9.00093C8.53941 9.1387 8.47637 9.26704 8.37452 9.36056C8.27268 9.45409 8.13944 9.50598 8.00117 9.50598C7.8629 9.50598 7.72966 9.45409 7.62781 9.36056C7.52597 9.26704 7.46293 9.1387 7.45117 9.00093L7.10117 5.49593C7.0878 5.37001 7.10115 5.24268 7.14036 5.12228C7.17956 5.00187 7.24373 4.89109 7.32868 4.79718C7.41362 4.70327 7.51743 4.62834 7.63331 4.57729C7.74919 4.52624 7.87454 4.50022 8.00117 4.50093ZM8.00117 10.5009C8.19895 10.5009 8.39229 10.5596 8.55674 10.6695C8.72119 10.7793 8.84936 10.9355 8.92505 11.1182C9.00073 11.301 9.02054 11.502 8.98195 11.696C8.94337 11.89 8.84813 12.0682 8.70827 12.208C8.56842 12.3479 8.39024 12.4431 8.19626 12.4817C8.00228 12.5203 7.80121 12.5005 7.61848 12.4248C7.43576 12.3491 7.27958 12.2209 7.1697 12.0565C7.05982 11.8921 7.00117 11.6987 7.00117 11.5009C7.00117 11.2357 7.10652 10.9814 7.29406 10.7938C7.4816 10.6063 7.73595 10.5009 8.00117 10.5009Z" fill="#58151C"/>
</svg>
