<svg width="16" height="16" viewBox="0 0 16 16" fill="none" xmlns="http://www.w3.org/2000/svg">
<g clip-path="url(#clip0_92_190)">
<path d="M14.5833 1.40944C14.21 1.03612 13.7668 0.739994 13.2791 0.537957C12.7914 0.335921 12.2686 0.231934 11.7407 0.231934C11.2127 0.231934 10.69 0.335921 10.2022 0.537957C9.71449 0.739994 9.27132 1.03612 8.89803 1.40944L8.13156 2.1759C7.5016 2.80586 7.94776 3.883 8.83866 3.883C9.10388 3.883 9.35823 3.77764 9.54576 3.59011L10.3122 2.82362C10.6915 2.44647 11.2048 2.23509 11.7396 2.23582C12.2744 2.23656 12.7871 2.44935 13.1653 2.82754C13.5435 3.20572 13.7563 3.71844 13.757 4.25327C13.7577 4.7881 13.5463 5.30139 13.1691 5.68059L10.1437 8.70603C9.76454 9.08432 9.25082 9.29678 8.71523 9.29678C8.51735 9.29678 8.32245 9.26778 8.13623 9.21213C7.60748 9.05412 6.97068 9.02214 6.58046 9.41236C6.18963 9.8032 6.18615 10.4504 6.66151 10.7324C7.27793 11.0982 7.98642 11.2958 8.71525 11.2958C9.78109 11.2958 10.8034 10.8731 11.5579 10.1203L14.5833 7.09487C15.3361 6.34037 15.759 5.31803 15.759 4.25216C15.759 3.18629 15.3362 2.16395 14.5833 1.40944Z" fill="#808080"/>
<path d="M5.72043 13.171C5.53116 13.3603 5.30647 13.5104 5.05918 13.6128C4.81189 13.7153 4.54685 13.768 4.27919 13.768C4.01153 13.768 3.74648 13.7153 3.49919 13.6128C3.2519 13.5104 3.02721 13.3603 2.83794 13.171C2.64868 12.9817 2.49854 12.7571 2.39611 12.5098C2.29368 12.2625 2.24096 11.9974 2.24095 11.7298C2.24095 11.4621 2.29367 11.1971 2.3961 10.9498C2.49853 10.7025 2.64866 10.4778 2.83793 10.2885L5.89418 7.23228C6.27303 6.85344 6.78685 6.64061 7.32262 6.64061C7.52029 6.64061 7.71498 6.66958 7.90101 6.72517C8.43016 6.88331 9.06763 6.91571 9.45816 6.52521C9.8487 6.13468 9.8526 5.48806 9.37793 5.20572C8.76133 4.83894 8.0522 4.64062 7.32263 4.64062C6.25642 4.64062 5.23388 5.06417 4.47996 5.81809L1.42371 8.87434C0.67037 9.63248 0.248304 10.6584 0.250005 11.7271C0.251706 12.7959 0.677035 13.8204 1.43278 14.5762C2.18853 15.3319 3.21306 15.7572 4.28184 15.7589C5.35062 15.7606 6.37648 15.3385 7.13462 14.5852L7.91102 13.8088C8.54098 13.1788 8.09482 12.1017 7.20394 12.1017C6.93873 12.1017 6.68439 12.2071 6.49686 12.3946L5.72043 13.171Z" fill="#808080"/>
</g>
<defs>
<clipPath id="clip0_92_190">
<rect width="16" height="16" fill="white"/>
</clipPath>
</defs>
</svg>
