<svg width="15" height="20" viewBox="0 0 15 20" fill="none" xmlns="http://www.w3.org/2000/svg">
<path d="M7.5 0C6.05387 0.00159908 4.66743 0.564016 3.64486 1.56386C2.62229 2.56371 2.04709 3.91934 2.04545 5.33333V7.66667H0V12.6667C0 14.6116 0.790177 16.4769 2.1967 17.8521C3.60322 19.2274 5.51088 20 7.5 20C9.48912 20 11.3968 19.2274 12.8033 17.8521C14.2098 16.4769 15 14.6116 15 12.6667V7.66667H12.9545V5.33333C12.9529 3.91934 12.3777 2.56371 11.3551 1.56386C10.3326 0.564016 8.94613 0.00159908 7.5 0ZM4.09091 5.33333C4.09091 4.44928 4.45008 3.60143 5.08941 2.97631C5.72874 2.35119 6.59585 2 7.5 2C8.40415 2 9.27126 2.35119 9.91059 2.97631C10.5499 3.60143 10.9091 4.44928 10.9091 5.33333V7.66667H4.09091V5.33333Z" fill="black"/>
</svg>
