<svg viewBox="0 0 49 49" fill="none"
    xmlns="http://www.w3.org/2000/svg">
    <path d="M32.6106 2.11704C32.2356 1.74196 31.7269 1.53125 31.1964 1.53125H6.59375C5.48918 1.53125 4.59375 2.42668 4.59375 3.53125V45.4688C4.59375 46.5733 5.48918 47.4688 6.59375 47.4688H43.1719C44.2764 47.4688 45.1719 46.5733 45.1719 45.4688V15.5067C45.1719 14.9763 44.9612 14.4676 44.5861 14.0925L32.6106 2.11704ZM42.0822 15.9195C42.0996 15.9369 42.1094 15.9606 42.1094 15.9852C42.1094 16.0365 42.0678 16.0781 42.0165 16.0781H32.625C31.5204 16.0781 30.625 15.1827 30.625 14.0781V4.68666C30.625 4.63535 30.6666 4.59375 30.7179 4.59375C30.7426 4.59375 30.7662 4.60354 30.7836 4.62096L42.0822 15.9195ZM9.65625 44.4062C8.55168 44.4062 7.65625 43.5108 7.65625 42.4062V6.59375C7.65625 5.48918 8.55168 4.59375 9.65625 4.59375H25.5625C26.6671 4.59375 27.5625 5.48918 27.5625 6.59375V17.1406C27.5625 18.2452 28.4579 19.1406 29.5625 19.1406H40.1094C41.2139 19.1406 42.1094 20.0361 42.1094 21.1406V42.4062C42.1094 43.5108 41.2139 44.4062 40.1094 44.4062H9.65625Z" fill="currentColor"/>
    <path d="M21.4375 22.9688H18.375V29.0938H12.25V32.1562H18.375V38.2812H21.4375V32.1562H27.5625V29.0938H21.4375V22.9688Z" fill="currentColor"/>
</svg>
