<svg viewBox="0 0 50 45" fill="none"
    xmlns="http://www.w3.org/2000/svg">
    <path d="M43.2093 19.6611V19.0724C43.2093 14.5206 39.9806 10.8306 35.9977 10.8306H25.668C23.7104 10.8306 21.8369 9.92108 20.4778 8.31097L20.1511 7.92391C19.7181 7.41095 19.3456 6.8355 19.0431 6.2122C17.7816 3.61269 15.3854 2 12.7844 2H9.21163C5.22875 2 2 5.69001 2 10.2419V34.9675C2 37.5018 3.0009 39.769 4.57558 41.2809M4.57558 41.2809C5.82914 42.4844 7.44631 43.2093 9.21163 43.2093H35.2333C36.1906 43.2093 37.0816 42.7202 37.5956 41.9126L47.0727 27.0199C49.4362 22.536 47.0557 19.6611 42.49 19.6611H30.3028H18.1156C15.7813 19.6611 12.7878 20.5676 11.8578 23.0252L4.79623 39.7434C4.65061 40.0882 4.57558 40.4586 4.57558 40.8329V41.2809Z" stroke="currentColor" stroke-width="3.2" stroke-linecap="round"/>
    <path d="M17.4536 27.7559H38.0583" stroke="currentColor" stroke-width="3.2" stroke-linecap="round"/>
</svg>
