<svg viewBox="0 0 41 54" fill="none"
    xmlns="http://www.w3.org/2000/svg">
    <g clip-path="url(#clip0_157_870)">
        <path d="M2.01363 43.2779L2.0164 43.2245L2.01629 43.1709C1.99898 34.3442 7.47247 27.3157 16.9839 25.8737C27.435 24.2892 37.3956 31.152 38.7939 41.4336L38.7939 41.4339C39.0869 43.5857 39.1412 45.2701 38.4445 46.7936L38.4442 46.7943C37.7624 48.287 36.8878 49.3331 35.8693 50.0207C34.8595 50.7024 33.5943 51.1091 31.9977 51.1482C30.6287 51.1482 27.72 51.1515 24.4045 51.1554C18.6855 51.1619 11.7563 51.1699 9.43205 51.1647C7.05265 51.1587 5.16722 50.2978 3.90673 48.9594C2.64535 47.62 1.88988 45.6747 2.01363 43.2779Z" stroke="currentColor" stroke-width="4"/>
        <path d="M11.9683 10.4864C11.9816 5.79818 15.8124 1.98669 20.4944 2.00004L20.4945 2.00004C25.254 2.01341 29.0293 5.81309 29.0175 10.6181M11.9683 10.4864L9.96831 10.4807L11.9683 10.4864ZM11.9683 10.4864C11.9549 15.261 15.7402 19.085 20.4326 19.1099M20.4326 19.1099L20.4219 21.1099L20.4326 19.1099ZM20.4326 19.1099C25.1602 19.135 29.0059 15.3222 29.0175 10.6181M29.0175 10.6181L31.0175 10.623L29.0175 10.6181Z" stroke="currentColor" stroke-width="4"/>
    </g>

</svg>
