<svg width="51" height="62" viewBox="0 0 51 62" fill="none" xmlns="http://www.w3.org/2000/svg">
<path d="M14 34.7064C15.8454 33.029 17.9337 31.6871 20.459 30.8903C25.2669 29.3387 29.8319 29.842 34.1056 32.1903C35.3683 32.9032 36.4852 33.8258 37.6022 34.6645L38 35" stroke="white" stroke-width="3"/>
<path d="M26.2769 0C28.246 1.09618 30.2152 2.11929 32.1086 3.36163C34.6837 5.11552 35.8198 7.67327 36.4257 10.5964C36.5014 10.9618 36.8043 11.3272 37.0315 11.5464C39.6824 13.2272 39.7581 17.0273 37.0315 18.6351C36.5014 18.9274 36.3499 19.2928 36.4257 19.8043C36.7286 25.3583 32.7903 29.743 28.0946 30.9123C21.7326 32.4469 15.1435 27.843 14.6891 21.5582C14.6133 20.9005 14.689 20.1697 14.6133 19.4389C14.6133 19.2197 14.3861 18.9274 14.2346 18.7812C11.2809 16.8812 11.2809 13.4465 14.0832 11.5464C14.4618 11.3272 14.689 10.8156 14.7648 10.3772C15.2949 8.03865 16.2038 5.84629 18.0972 4.16547C18.4002 3.87316 18.7789 3.58086 19.1575 3.36163C20.5208 2.4116 22.2628 1.90004 23.5503 0.657704C23.8533 0.365389 24.4592 0.292308 24.9136 0.073072C25.4437 -6.69165e-06 25.8982 0 26.2769 0ZM17.5671 19.2928C17.3399 22.8736 18.6274 25.5776 21.8841 27.3314C24.6106 28.793 28.0188 28.5007 30.4424 26.6007C32.7903 24.7006 33.8506 22.289 33.5476 19.2928C28.1703 19.2928 22.9444 19.2928 17.5671 19.2928ZM25.5952 13.8119C22.6415 13.8119 19.6877 13.8119 16.734 13.8119C15.5979 13.8119 14.992 14.2503 14.992 15.1273C14.992 15.9312 15.5979 16.4427 16.6582 16.4427C22.5657 16.4427 28.4732 16.4427 34.3807 16.4427C35.4411 16.4427 36.047 15.9312 36.047 15.1273C36.047 14.2503 35.5168 13.8119 34.4565 13.8119C31.5785 13.8119 28.549 13.8119 25.5952 13.8119ZM24.4592 10.8156C25.2165 10.8156 25.8982 10.8156 26.6555 10.8156C26.6555 8.47712 26.6555 6.1386 26.6555 3.80008C26.6555 3.14237 26.1254 2.85007 25.5952 2.85007C24.9893 2.85007 24.5349 3.21546 24.5349 3.87316C24.4592 6.1386 24.4592 8.40405 24.4592 10.8156ZM29.7608 5.26166C29.7608 6.86939 29.7608 8.33097 29.7608 9.79255C29.7608 10.0849 29.7608 10.4502 29.7608 10.7426C30.9726 10.7426 32.1844 10.7426 33.3204 10.7426C33.0175 8.40404 31.7299 6.35784 29.7608 5.26166ZM21.3539 5.26166C19.2333 6.65015 18.173 8.5502 17.7943 10.8156C19.0061 10.8156 20.2179 10.8156 21.3539 10.8156C21.3539 8.9156 21.3539 7.1617 21.3539 5.26166Z" fill="white"/>
<path d="M1.58731 57.5362L6.59325 36.5362C6.80796 35.6356 7.61282 35 8.53874 35H42.4613C43.3872 35 44.192 35.6356 44.4067 36.5362L49.4127 57.5362C49.7123 58.7931 48.7593 60 47.4672 60H3.5328C2.24069 60 1.28769 58.7931 1.58731 57.5362Z" stroke="white" stroke-width="3"/>
<mask id="path-4-outside-1_157_724" maskUnits="userSpaceOnUse" x="9" y="38.8096" width="33" height="17" fill="black">
<rect fill="white" x="9" y="38.8096" width="33" height="17"/>
<path fill-rule="evenodd" clip-rule="evenodd" d="M31.9168 40.8324H37.3205C37.5617 41.7578 37.7547 42.6832 37.8512 43.4625L37.8519 43.4658L37.8519 43.4659L37.8519 43.4659C38.4789 46.5332 39.1059 49.6005 39.7328 52.619L39.7402 52.6453C39.8345 52.9796 39.9382 53.3471 40.4083 53.2522C40.8513 53.1628 40.8062 52.868 40.7585 52.5564C40.7542 52.5287 40.75 52.5008 40.746 52.4729C40.3845 50.7124 40.0135 48.9424 39.6415 47.1672L39.6414 47.1666L39.6413 47.1661L39.6412 47.1655C39.1693 44.914 38.6957 42.654 38.2372 40.394C38.1889 40.0044 37.9959 39.8096 37.5617 39.8096H31.6273C31.5308 39.8096 31.3861 39.8096 31.3379 39.8583C31.1931 40.0044 31.0001 40.1992 31.0001 40.3453C31.0001 40.4914 31.1931 40.6863 31.3379 40.7837C31.4826 40.8567 31.6273 40.8476 31.7721 40.8385C31.8203 40.8354 31.8686 40.8324 31.9168 40.8324ZM11.8987 54.1003H11.1766V53.8337C11.6821 51.6565 12.1755 49.4683 12.6689 47.28L12.669 47.28L12.669 47.2799C13.1624 45.0916 13.6558 42.9034 14.1613 40.7263L14.165 40.699C14.2116 40.3572 14.2464 40.102 13.8243 40.0154C13.3911 39.9265 13.2948 40.2376 13.1985 40.5486C12.9819 41.5261 12.7532 42.5036 12.5245 43.4811C12.2959 44.4586 12.0672 45.4361 11.8506 46.4136C11.5377 47.7243 11.2368 49.0462 10.9359 50.368C10.635 51.6898 10.3341 53.0117 10.0212 54.3224C9.92495 54.7667 10.1657 54.9445 10.5508 54.9889H11.0803H29.7002C29.7732 54.9889 29.8461 54.9917 29.9183 54.9945H29.9183H29.9184C30.1319 55.0028 30.3387 55.0109 30.5186 54.9445C30.7112 54.9 31 54.7157 31 54.4557C31 54.3092 30.7923 54.2284 30.6098 54.1575C30.5599 54.138 30.5118 54.1194 30.4705 54.1003C30.4063 54.0706 30.2993 54.0805 30.1923 54.0904C30.1388 54.0953 30.0853 54.1003 30.0372 54.1003H11.8987ZM29.4144 47.1504H26.3236C26.0231 47.1504 25.7655 47.0892 25.7655 46.5387C25.7655 45.9881 26.0231 45.927 26.3236 45.927H32.5481C32.8486 45.927 33.1062 45.9881 33.1062 46.5387C33.1062 47.028 32.8486 47.1504 32.5481 47.1504H29.4144ZM18.7177 49.3825C18.6201 49.68 18.5224 49.9776 18.4248 50.4238C18.5225 50.5726 18.7178 50.8206 18.8643 50.8206C19.0596 50.771 19.3526 50.5726 19.4014 50.3742C19.6455 49.5808 19.8775 48.7749 20.1094 47.969C20.3413 47.1631 20.5733 46.3572 20.8174 45.5637C20.9151 45.2165 20.9151 44.8198 20.5244 44.7206C20.1338 44.6214 19.9873 44.9686 19.8897 45.3157C19.6944 45.9852 19.499 46.6671 19.3037 47.349C19.1084 48.031 18.9131 48.7129 18.7178 49.3824L18.7177 49.3825Z"/>
</mask>
<path fill-rule="evenodd" clip-rule="evenodd" d="M31.9168 40.8324H37.3205C37.5617 41.7578 37.7547 42.6832 37.8512 43.4625L37.8519 43.4658L37.8519 43.4659L37.8519 43.4659C38.4789 46.5332 39.1059 49.6005 39.7328 52.619L39.7402 52.6453C39.8345 52.9796 39.9382 53.3471 40.4083 53.2522C40.8513 53.1628 40.8062 52.868 40.7585 52.5564C40.7542 52.5287 40.75 52.5008 40.746 52.4729C40.3845 50.7124 40.0135 48.9424 39.6415 47.1672L39.6414 47.1666L39.6413 47.1661L39.6412 47.1655C39.1693 44.914 38.6957 42.654 38.2372 40.394C38.1889 40.0044 37.9959 39.8096 37.5617 39.8096H31.6273C31.5308 39.8096 31.3861 39.8096 31.3379 39.8583C31.1931 40.0044 31.0001 40.1992 31.0001 40.3453C31.0001 40.4914 31.1931 40.6863 31.3379 40.7837C31.4826 40.8567 31.6273 40.8476 31.7721 40.8385C31.8203 40.8354 31.8686 40.8324 31.9168 40.8324ZM11.8987 54.1003H11.1766V53.8337C11.6821 51.6565 12.1755 49.4683 12.6689 47.28L12.669 47.28L12.669 47.2799C13.1624 45.0916 13.6558 42.9034 14.1613 40.7263L14.165 40.699C14.2116 40.3572 14.2464 40.102 13.8243 40.0154C13.3911 39.9265 13.2948 40.2376 13.1985 40.5486C12.9819 41.5261 12.7532 42.5036 12.5245 43.4811C12.2959 44.4586 12.0672 45.4361 11.8506 46.4136C11.5377 47.7243 11.2368 49.0462 10.9359 50.368C10.635 51.6898 10.3341 53.0117 10.0212 54.3224C9.92495 54.7667 10.1657 54.9445 10.5508 54.9889H11.0803H29.7002C29.7732 54.9889 29.8461 54.9917 29.9183 54.9945H29.9183H29.9184C30.1319 55.0028 30.3387 55.0109 30.5186 54.9445C30.7112 54.9 31 54.7157 31 54.4557C31 54.3092 30.7923 54.2284 30.6098 54.1575C30.5599 54.138 30.5118 54.1194 30.4705 54.1003C30.4063 54.0706 30.2993 54.0805 30.1923 54.0904C30.1388 54.0953 30.0853 54.1003 30.0372 54.1003H11.8987ZM29.4144 47.1504H26.3236C26.0231 47.1504 25.7655 47.0892 25.7655 46.5387C25.7655 45.9881 26.0231 45.927 26.3236 45.927H32.5481C32.8486 45.927 33.1062 45.9881 33.1062 46.5387C33.1062 47.028 32.8486 47.1504 32.5481 47.1504H29.4144ZM18.7177 49.3825C18.6201 49.68 18.5224 49.9776 18.4248 50.4238C18.5225 50.5726 18.7178 50.8206 18.8643 50.8206C19.0596 50.771 19.3526 50.5726 19.4014 50.3742C19.6455 49.5808 19.8775 48.7749 20.1094 47.969C20.3413 47.1631 20.5733 46.3572 20.8174 45.5637C20.9151 45.2165 20.9151 44.8198 20.5244 44.7206C20.1338 44.6214 19.9873 44.9686 19.8897 45.3157C19.6944 45.9852 19.499 46.6671 19.3037 47.349C19.1084 48.031 18.9131 48.7129 18.7178 49.3824L18.7177 49.3825Z" fill="white"/>
<path d="M37.3205 40.8324L37.8043 40.7063L37.7069 40.3324H37.3205V40.8324ZM37.8512 43.4625L37.355 43.5239L37.3574 43.5434L37.3614 43.5627L37.8512 43.4625ZM37.8519 43.4658L37.362 43.5661L37.3638 43.5743L37.8519 43.4658ZM37.8519 43.4659L37.3638 43.5744L37.3641 43.5758L37.8519 43.4659ZM37.8519 43.4659L38.3419 43.3658L38.3397 43.356L37.8519 43.4659ZM39.7328 52.619L39.2433 52.7207L39.2469 52.738L39.2516 52.7549L39.7328 52.619ZM39.7402 52.6453L40.2215 52.5096L40.2214 52.5094L39.7402 52.6453ZM40.4083 53.2522L40.5073 53.7423H40.5073L40.4083 53.2522ZM40.7585 52.5564L41.2527 52.4808L41.2527 52.4808L40.7585 52.5564ZM40.746 52.4729L41.2411 52.4029L41.2389 52.3875L41.2358 52.3723L40.746 52.4729ZM39.6415 47.1672L39.1521 47.2697L39.1521 47.2697L39.6415 47.1672ZM39.6414 47.1666L39.1516 47.2672L39.152 47.2691L39.6414 47.1666ZM39.6413 47.1661L39.1515 47.2667L39.1515 47.2667L39.6413 47.1661ZM39.6412 47.1655L40.131 47.0649L40.1305 47.063L39.6412 47.1655ZM38.2372 40.394L37.741 40.4555L37.7433 40.4746L37.7472 40.4935L38.2372 40.394ZM31.3379 39.8583L31.6931 40.2102L31.6931 40.2102L31.3379 39.8583ZM31.3379 40.7837L31.0587 41.1985L31.0846 41.2159L31.1126 41.23L31.3379 40.7837ZM31.7721 40.8385L31.7406 40.3395V40.3395L31.7721 40.8385ZM11.1766 54.1003H10.6766V54.6003H11.1766V54.1003ZM11.1766 53.8337L10.6896 53.7206L10.6766 53.7764V53.8337H11.1766ZM12.6689 47.28L13.1567 47.39L13.1572 47.3877L12.6689 47.28ZM12.669 47.28L12.1813 47.1694L12.1807 47.1723L12.669 47.28ZM12.669 47.2799L13.1566 47.3904L13.1567 47.3899L12.669 47.2799ZM14.1613 40.7263L14.6483 40.8394L14.6536 40.8167L14.6567 40.7937L14.1613 40.7263ZM14.165 40.699L13.6696 40.6314L13.6696 40.6316L14.165 40.699ZM13.8243 40.0154L13.9248 39.5256H13.9248L13.8243 40.0154ZM13.1985 40.5486L12.7209 40.4007L12.7148 40.4203L12.7103 40.4404L13.1985 40.5486ZM12.5245 43.4811L13.0114 43.595V43.595L12.5245 43.4811ZM11.8506 46.4136L12.337 46.5297L12.3387 46.5218L11.8506 46.4136ZM10.9359 50.368L10.4484 50.257L10.9359 50.368ZM10.0212 54.3224L9.53479 54.2063L9.53257 54.2165L10.0212 54.3224ZM10.5508 54.9889L10.4935 55.4856L10.522 55.4889H10.5508V54.9889ZM29.9183 54.9945L29.8989 55.4942L29.9086 55.4945H29.9183V54.9945ZM29.9184 54.9945L29.9378 54.4949L29.9281 54.4945H29.9184V54.9945ZM30.5186 54.9445L30.4062 54.4573L30.3752 54.4644L30.3454 54.4754L30.5186 54.9445ZM30.6098 54.1575L30.791 53.6915L30.791 53.6915L30.6098 54.1575ZM30.4705 54.1003L30.68 53.6463L30.68 53.6463L30.4705 54.1003ZM30.1923 54.0904L30.1464 53.5925H30.1464L30.1923 54.0904ZM18.4248 50.4238L17.9364 50.317L17.8914 50.5224L18.0068 50.6982L18.4248 50.4238ZM18.7177 49.3825L18.2444 49.2212L18.2427 49.2266L18.7177 49.3825ZM18.8643 50.8206V51.3206H18.9268L18.9873 51.3052L18.8643 50.8206ZM19.4014 50.3742L18.9235 50.2272L18.9193 50.2409L18.9159 50.2547L19.4014 50.3742ZM20.1094 47.969L20.5899 48.1073L20.1094 47.969ZM20.8174 45.5637L21.2955 45.7108L21.2987 45.6991L20.8174 45.5637ZM20.5244 44.7206L20.4014 45.2052L20.4014 45.2052L20.5244 44.7206ZM19.8897 45.3157L20.3697 45.4557L20.371 45.4511L19.8897 45.3157ZM19.3037 47.349L18.8231 47.2114V47.2114L19.3037 47.349ZM18.7178 49.3824L19.191 49.5437L19.1946 49.5331L19.1978 49.5224L18.7178 49.3824ZM37.3205 40.3324H31.9168V41.3324H37.3205V40.3324ZM38.3474 43.401C38.2473 42.5929 38.0489 41.6447 37.8043 40.7063L36.8366 40.9585C37.0745 41.8709 37.2621 42.7735 37.355 43.5239L38.3474 43.401ZM38.3417 43.3656L38.341 43.3622L37.3614 43.5627L37.362 43.5661L38.3417 43.3656ZM38.34 43.3574L38.34 43.3574L37.3638 43.5743L37.3638 43.5744L38.34 43.3574ZM38.3397 43.356L38.3397 43.356L37.3641 43.5758L37.3641 43.5759L38.3397 43.356ZM40.2224 52.5174C39.5956 49.4997 38.9688 46.4332 38.3418 43.3658L37.362 43.5661C37.989 46.6332 38.6161 49.7012 39.2433 52.7207L40.2224 52.5174ZM40.2214 52.5094L40.214 52.4832L39.2516 52.7549L39.2591 52.7811L40.2214 52.5094ZM40.3094 52.7621C40.2564 52.7728 40.2546 52.7625 40.2801 52.7711C40.292 52.7752 40.3036 52.7814 40.3132 52.7885C40.3223 52.7953 40.326 52.8002 40.3253 52.7993C40.3216 52.7946 40.3069 52.773 40.2858 52.7173C40.2646 52.6613 40.2462 52.5972 40.2215 52.5096L39.259 52.781C39.2982 52.9201 39.3703 53.2041 39.5413 53.4201C39.6385 53.5428 39.7743 53.6553 39.9576 53.7177C40.1376 53.779 40.3251 53.7791 40.5073 53.7423L40.3094 52.7621ZM40.2642 52.6321C40.2704 52.6721 40.2754 52.705 40.2795 52.7364C40.2835 52.7673 40.2859 52.7916 40.2869 52.8115C40.2893 52.8549 40.2842 52.8577 40.2896 52.8405C40.2928 52.8298 40.2993 52.8141 40.3108 52.7968C40.3226 52.7792 40.3359 52.7657 40.3475 52.7566C40.3694 52.7393 40.3691 52.75 40.3093 52.7621L40.5073 53.7423C40.669 53.7097 40.8291 53.65 40.9657 53.5426C41.1093 53.4297 41.1987 53.2859 41.2453 53.1348C41.3242 52.8786 41.271 52.6002 41.2527 52.4808L40.2642 52.6321ZM40.251 52.543C40.2554 52.5741 40.2601 52.6048 40.2642 52.6321L41.2527 52.4808C41.2484 52.4526 41.2446 52.4275 41.2411 52.4029L40.251 52.543ZM39.1521 47.2697C39.5242 49.0452 39.8949 50.8142 40.2562 52.5735L41.2358 52.3723C40.874 50.6107 40.5029 48.8397 40.1309 47.0646L39.1521 47.2697ZM39.152 47.2691L39.1521 47.2697L40.1309 47.0647L40.1308 47.0641L39.152 47.2691ZM39.1515 47.2667L39.1516 47.2672L40.1312 47.066L40.1311 47.0655L39.1515 47.2667ZM39.1514 47.2661L39.1515 47.2667L40.1311 47.0655L40.131 47.0649L39.1514 47.2661ZM37.7472 40.4935C38.2061 42.7553 38.68 45.0169 39.1518 47.2681L40.1305 47.063C39.6587 44.8112 39.1854 42.5528 38.7272 40.2946L37.7472 40.4935ZM37.5617 40.3096C37.7099 40.3096 37.7271 40.343 37.7103 40.3278C37.6944 40.3136 37.7247 40.3244 37.741 40.4555L38.7334 40.3326C38.7014 40.074 38.6111 39.7926 38.3781 39.5835C38.1441 39.3736 37.8477 39.3096 37.5617 39.3096V40.3096ZM31.6273 40.3096H37.5617V39.3096H31.6273V40.3096ZM31.6931 40.2102C31.6558 40.2478 31.6195 40.2706 31.595 40.2836C31.5702 40.2968 31.5503 40.3038 31.5394 40.3073C31.5192 40.3136 31.5101 40.3137 31.5202 40.3125C31.5283 40.3116 31.5417 40.3107 31.5618 40.3101C31.5819 40.3096 31.6024 40.3096 31.6273 40.3096V39.3096C31.5844 39.3096 31.4957 39.309 31.4088 39.3188C31.3646 39.3237 31.3043 39.333 31.2404 39.353C31.1832 39.3709 31.0768 39.4113 30.9826 39.5064L31.6931 40.2102ZM31.5001 40.3453C31.5001 40.3817 31.4942 40.4091 31.4897 40.4249C31.4852 40.4407 31.481 40.4493 31.4806 40.4501C31.4801 40.451 31.4817 40.4477 31.4869 40.4398C31.492 40.432 31.4993 40.4218 31.5093 40.4089C31.554 40.3515 31.6163 40.2877 31.6931 40.2102L30.9826 39.5064C30.9147 39.575 30.8081 39.6817 30.7201 39.7947C30.6753 39.8523 30.6251 39.9242 30.5845 40.0062C30.5455 40.0849 30.5001 40.2031 30.5001 40.3453H31.5001ZM31.617 40.3689C31.6011 40.3582 31.5796 40.3418 31.5566 40.3213C31.5336 40.3008 31.5133 40.28 31.4979 40.2616C31.4814 40.2419 31.4772 40.233 31.4789 40.2365C31.4801 40.2389 31.4848 40.2486 31.4895 40.265C31.4942 40.2814 31.5001 40.309 31.5001 40.3453H30.5001C30.5001 40.6061 30.6524 40.8096 30.7315 40.904C30.8301 41.0216 30.9503 41.1256 31.0587 41.1985L31.617 40.3689ZM31.7406 40.3395C31.6623 40.3444 31.6254 40.3459 31.5943 40.3434C31.5708 40.3416 31.5648 40.3382 31.5632 40.3373L31.1126 41.23C31.3954 41.3728 31.6743 41.3456 31.8036 41.3375L31.7406 40.3395ZM31.9168 40.3324C31.8502 40.3324 31.7862 40.3366 31.7406 40.3395L31.8036 41.3375C31.8545 41.3343 31.887 41.3324 31.9168 41.3324V40.3324ZM11.1766 54.6003H11.8987V53.6003H11.1766V54.6003ZM10.6766 53.8337V54.1003H11.6766V53.8337H10.6766ZM12.1812 47.17C11.6877 49.3586 11.1946 51.5453 10.6896 53.7206L11.6636 53.9467C12.1695 51.7678 12.6633 49.578 13.1567 47.39L12.1812 47.17ZM12.1807 47.1723L12.1807 47.1723L13.1572 47.3877L13.1572 47.3877L12.1807 47.1723ZM12.1813 47.1693L12.1813 47.1694L13.1566 47.3905L13.1566 47.3904L12.1813 47.1693ZM13.6743 40.6132C13.1684 42.7921 12.6746 44.9819 12.1812 47.1699L13.1567 47.3899C13.6502 45.2014 14.1433 43.0147 14.6483 40.8394L13.6743 40.6132ZM13.6696 40.6316L13.6659 40.6589L14.6567 40.7937L14.6605 40.7663L13.6696 40.6316ZM13.7239 40.5052C13.7846 40.5177 13.7851 40.5278 13.7626 40.511C13.7501 40.5016 13.735 40.4873 13.7212 40.4677C13.7075 40.4482 13.6994 40.4299 13.695 40.4164C13.6877 40.394 13.6933 40.3929 13.6913 40.4382C13.6904 40.4589 13.6882 40.4845 13.6843 40.5179C13.6805 40.5516 13.6756 40.5876 13.6696 40.6314L14.6604 40.7665C14.6713 40.6868 14.6859 40.5828 14.6903 40.4821C14.6948 40.3807 14.6913 40.2463 14.6458 40.1066C14.5965 39.9552 14.5039 39.8168 14.3618 39.7104C14.2285 39.6107 14.0751 39.5564 13.9248 39.5256L13.7239 40.5052ZM13.6761 40.6964C13.7016 40.6143 13.7192 40.5585 13.7386 40.5113C13.7577 40.4648 13.7681 40.4534 13.765 40.4571C13.7567 40.4668 13.7338 40.4865 13.7015 40.4963C13.6742 40.5045 13.6743 40.495 13.7239 40.5052L13.9248 39.5256C13.7577 39.4913 13.5833 39.4875 13.4131 39.5387C13.2378 39.5915 13.1037 39.6917 13.0051 39.807C12.834 40.0071 12.7597 40.2751 12.7209 40.4007L13.6761 40.6964ZM13.0114 43.595C13.2399 42.618 13.4693 41.6376 13.6867 40.6568L12.7103 40.4404C12.4944 41.4146 12.2665 42.3892 12.0377 43.3672L13.0114 43.595ZM12.3387 46.5218C12.5546 45.5476 12.7826 44.573 13.0114 43.595L12.0377 43.3672C11.8091 44.3442 11.5798 45.3246 11.3624 46.3054L12.3387 46.5218ZM11.4234 50.479C11.7244 49.1567 12.0247 47.8374 12.3369 46.5297L11.3642 46.2975C11.0506 47.6112 10.7491 48.9356 10.4484 50.257L11.4234 50.479ZM10.5076 54.4385C10.8212 53.1248 11.1226 51.8004 11.4234 50.479L10.4484 50.257C10.1474 51.5793 9.84709 52.8986 9.5349 54.2063L10.5076 54.4385ZM10.6081 54.4922C10.5414 54.4845 10.4996 54.4729 10.4765 54.4638C10.4545 54.455 10.4606 54.453 10.4748 54.4686C10.482 54.4764 10.4886 54.4859 10.4936 54.4962C10.4986 54.5063 10.5002 54.5134 10.5005 54.5152C10.5009 54.5173 10.496 54.4925 10.5099 54.4283L9.53257 54.2165C9.46325 54.5364 9.49477 54.8781 9.73612 55.1426C9.95354 55.3809 10.2568 55.4583 10.4935 55.4856L10.6081 54.4922ZM11.0803 54.4889H10.5508V55.4889H11.0803V54.4889ZM29.7002 54.4889H11.0803V55.4889H29.7002V54.4889ZM29.9377 54.4949C29.8672 54.4922 29.7845 54.4889 29.7002 54.4889V55.4889C29.7619 55.4889 29.8251 55.4913 29.8989 55.4942L29.9377 54.4949ZM29.9183 54.4945H29.9183V55.4945H29.9183V54.4945ZM29.9184 54.4945H29.9183V55.4945H29.9184V54.4945ZM30.3454 54.4754C30.2764 54.5009 30.1762 54.5042 29.9378 54.4949L29.899 55.4942C30.0877 55.5015 30.401 55.5208 30.6918 55.4135L30.3454 54.4754ZM30.5 54.4557C30.5 54.4249 30.5092 54.4028 30.5141 54.394C30.5178 54.3873 30.5166 54.3921 30.5025 54.4044C30.4888 54.4164 30.4698 54.4293 30.4481 54.4404C30.4257 54.4518 30.4099 54.4564 30.4062 54.4573L30.631 55.4317C30.8067 55.3911 31.0016 55.2963 31.1605 55.1574C31.3189 55.019 31.5 54.7821 31.5 54.4557H30.5ZM30.4286 54.6234C30.476 54.6419 30.513 54.6564 30.5465 54.6711C30.5803 54.686 30.5981 54.6958 30.6056 54.7005C30.6152 54.7066 30.5937 54.6954 30.5671 54.6604C30.5524 54.6412 30.5351 54.6134 30.5216 54.5767C30.5078 54.5392 30.5 54.498 30.5 54.4557H31.5C31.5 54.1139 31.2525 53.9266 31.141 53.856C31.017 53.7773 30.8696 53.722 30.791 53.6915L30.4286 54.6234ZM30.261 54.5542C30.319 54.5811 30.3825 54.6055 30.4286 54.6234L30.791 53.6915C30.7373 53.6705 30.7046 53.6576 30.68 53.6463L30.261 54.5542ZM30.2383 54.5883C30.266 54.5857 30.2874 54.5838 30.3073 54.5823C30.327 54.5809 30.3396 54.5805 30.3474 54.5805C30.3559 54.5805 30.3525 54.581 30.3414 54.5794C30.3353 54.5785 30.3252 54.5767 30.3122 54.5731C30.2992 54.5695 30.2815 54.5637 30.261 54.5543L30.68 53.6463C30.5464 53.5846 30.414 53.5805 30.3474 53.5805C30.2718 53.5805 30.1942 53.5881 30.1464 53.5925L30.2383 54.5883ZM30.0372 54.6003C30.1128 54.6003 30.1905 54.5927 30.2383 54.5883L30.1464 53.5925C30.0872 53.598 30.0579 53.6003 30.0372 53.6003V54.6003ZM11.8987 54.6003H30.0372V53.6003H11.8987V54.6003ZM26.3236 47.6504H29.4144V46.6504H26.3236V47.6504ZM25.2655 46.5387C25.2655 46.8759 25.3429 47.2133 25.6137 47.4367C25.864 47.6432 26.1679 47.6504 26.3236 47.6504V46.6504C26.2612 46.6504 26.2301 46.6467 26.2151 46.6435C26.2039 46.6411 26.2236 46.6434 26.2501 46.6653C26.2628 46.6758 26.2723 46.6869 26.2785 46.6962C26.2844 46.705 26.2849 46.7086 26.2829 46.7027C26.2779 46.6883 26.2655 46.6406 26.2655 46.5387H25.2655ZM26.3236 45.427C26.1679 45.427 25.864 45.4342 25.6137 45.6407C25.3429 45.864 25.2655 46.2015 25.2655 46.5387H26.2655C26.2655 46.4367 26.2779 46.389 26.2829 46.3747C26.2849 46.3688 26.2844 46.3723 26.2785 46.3811C26.2723 46.3904 26.2628 46.4015 26.2501 46.412C26.2236 46.4339 26.2039 46.4363 26.2151 46.4339C26.2301 46.4306 26.2612 46.427 26.3236 46.427V45.427ZM32.5481 45.427H26.3236V46.427H32.5481V45.427ZM33.6062 46.5387C33.6062 46.2015 33.5288 45.864 33.258 45.6407C33.0077 45.4342 32.7038 45.427 32.5481 45.427V46.427C32.6105 46.427 32.6416 46.4306 32.6565 46.4339C32.6678 46.4363 32.6481 46.4339 32.6216 46.412C32.6089 46.4015 32.5994 46.3904 32.5932 46.3811C32.5873 46.3723 32.5868 46.3688 32.5888 46.3747C32.5938 46.389 32.6062 46.4367 32.6062 46.5387H33.6062ZM32.5481 47.6504C32.7536 47.6504 33.04 47.6106 33.2743 47.3997C33.5184 47.18 33.6062 46.8666 33.6062 46.5387H32.6062C32.6062 46.6189 32.5954 46.6585 32.5907 46.6717C32.5871 46.6815 32.5894 46.6707 32.6053 46.6564C32.6201 46.6431 32.6306 46.6412 32.6238 46.6431C32.6147 46.6458 32.5913 46.6504 32.5481 46.6504V47.6504ZM29.4144 47.6504H32.5481V46.6504H29.4144V47.6504ZM18.9132 50.5307C19.0052 50.1105 19.0962 49.8329 19.1928 49.5384L18.2427 49.2266C18.144 49.5271 18.0397 49.8446 17.9364 50.317L18.9132 50.5307ZM18.8643 50.3206C18.9161 50.3206 18.9552 50.3314 18.9774 50.3394C18.9996 50.3475 19.0122 50.3553 19.0148 50.3569C19.0182 50.3591 19.007 50.352 18.9825 50.3272C18.9341 50.278 18.8811 50.2077 18.8428 50.1495L18.0068 50.6982C18.0662 50.7887 18.1597 50.9168 18.2699 51.0288C18.3248 51.0846 18.396 51.1488 18.4803 51.2021C18.5582 51.2514 18.693 51.3206 18.8643 51.3206V50.3206ZM18.9159 50.2547C18.926 50.2138 18.9409 50.1994 18.9322 50.2105C18.925 50.2196 18.9086 50.2369 18.8811 50.2583C18.8542 50.2791 18.8239 50.2983 18.7949 50.3133C18.7644 50.3289 18.7452 50.3349 18.7412 50.336L18.9873 51.3052C19.1648 51.2601 19.3481 51.1618 19.4945 51.0481C19.6282 50.9442 19.822 50.7575 19.8869 50.4938L18.9159 50.2547ZM19.6289 47.8307C19.3967 48.6373 19.1661 49.4388 18.9235 50.2272L19.8793 50.5213C20.125 49.7227 20.3582 48.9124 20.5899 48.1073L19.6289 47.8307ZM20.3395 45.4166C20.0938 46.2152 19.8606 47.0256 19.6289 47.8307L20.5899 48.1073C20.8221 47.3006 21.0527 46.4991 21.2953 45.7107L20.3395 45.4166ZM20.4014 45.2052C20.4189 45.2096 20.4048 45.2094 20.3852 45.1886C20.3671 45.1694 20.3653 45.1549 20.3674 45.1641C20.3702 45.176 20.3741 45.2053 20.3697 45.256C20.3653 45.3056 20.3542 45.3641 20.3361 45.4283L21.2987 45.6991C21.3567 45.493 21.4059 45.2102 21.3406 44.9342C21.3062 44.7884 21.2372 44.6344 21.1123 44.5021C20.9859 44.3682 20.8253 44.2811 20.6475 44.236L20.4014 45.2052ZM20.371 45.4511C20.393 45.3728 20.414 45.3085 20.436 45.2562C20.4586 45.2025 20.4755 45.1778 20.4821 45.1699C20.4861 45.1651 20.4716 45.1838 20.4361 45.196C20.3991 45.2086 20.3808 45.2 20.4014 45.2052L20.6475 44.236C20.4728 44.1916 20.2896 44.1892 20.1123 44.2499C19.9365 44.31 19.8059 44.4187 19.7123 44.5316C19.5404 44.7389 19.4573 45.0064 19.4084 45.1803L20.371 45.4511ZM19.7844 47.4867C19.9798 46.8046 20.1747 46.1239 20.3697 45.4557L19.4097 45.1757C19.214 45.8466 19.0183 46.5297 18.8231 47.2114L19.7844 47.4867ZM19.1978 49.5224C19.3935 48.8515 19.5891 48.1684 19.7844 47.4867L18.8231 47.2114C18.6277 47.8935 18.4327 48.5742 18.2378 49.2424L19.1978 49.5224ZM19.191 49.5438L19.191 49.5437L18.2445 49.221L18.2445 49.2212L19.191 49.5438Z" fill="white" mask="url(#path-4-outside-1_157_724)"/>
</svg>
