<svg width="17" height="22" viewBox="0 0 17 22" fill="none" xmlns="http://www.w3.org/2000/svg">
<g clip-path="url(#clip0_122_206)">
<path d="M8.48572 21.9898C6.95988 21.9898 5.4349 21.9932 3.90906 21.9898C1.52179 21.9838 -0.116628 20.2471 0.0070425 17.8578C0.212591 13.8845 3.00925 10.6584 6.91809 9.88384C11.6176 8.95321 16.259 12.2714 16.9073 17.0261C17.0309 17.932 17.0898 18.837 16.6949 19.6986C16.0262 21.1589 14.8816 21.9471 13.2773 21.9829C11.6807 22.0188 10.0823 21.9906 8.48487 21.9906L8.48572 21.9898Z" fill="black"/>
<path d="M8.50017 1.78877e-05C10.9352 0.00684197 12.867 1.95341 12.861 4.39388C12.8551 6.79937 10.8849 8.74423 8.46776 8.73143C6.05831 8.71864 4.1265 6.75927 4.13332 4.33502C4.14014 1.93976 6.10011 -0.0068062 8.50017 1.78877e-05Z" fill="black"/>
</g>
<defs>
<clipPath id="clip0_122_206">
<rect width="17" height="22" fill="white"/>
</clipPath>
</defs>
</svg>
