<svg width="16" height="16" viewBox="0 0 16 16" fill="none" xmlns="http://www.w3.org/2000/svg">
<path d="M3 14.6932C2.99934 14.8881 3.07654 15.0754 3.21468 15.2138C3.35281 15.3523 3.5406 15.4307 3.73685 15.4318H12.2632C12.4594 15.4307 12.6472 15.3523 12.7853 15.2138C12.9235 15.0754 13.0007 14.8881 13 14.6932V7.25C13 6.14543 12.1046 5.25 11 5.25H5C3.89543 5.25 3 6.14543 3 7.25V14.6932ZM10.4375 7.7992C10.4375 7.48854 10.6893 7.2367 11 7.2367V7.2367C11.3107 7.2367 11.5625 7.48854 11.5625 7.7992V12.8826C11.5625 13.1933 11.3107 13.4451 11 13.4451V13.4451C10.6893 13.4451 10.4375 13.1933 10.4375 12.8826V7.7992ZM7.4375 7.7992C7.4375 7.48854 7.68934 7.2367 8 7.2367V7.2367C8.31066 7.2367 8.5625 7.48854 8.5625 7.7992V12.8826C8.5625 13.1933 8.31066 13.4451 8 13.4451V13.4451C7.68934 13.4451 7.4375 13.1933 7.4375 12.8826V7.7992ZM4.4375 7.7992C4.4375 7.48854 4.68934 7.2367 5 7.2367V7.2367C5.31066 7.2367 5.5625 7.48854 5.5625 7.7992V12.8826C5.5625 13.1933 5.31066 13.4451 5 13.4451V13.4451C4.68934 13.4451 4.4375 13.1933 4.4375 12.8826V7.7992Z" fill="#FE3D1E"/>
<path d="M11.7779 2.8904C11.0203 2.8904 10.4062 2.27631 10.4062 1.51879V1.51879C10.4062 1.00007 10.0411 0.59375 9.575 0.59375H6.425C5.95888 0.59375 5.59375 1.00007 5.59375 1.51879V1.51879C5.59375 2.27631 4.97966 2.8904 4.22214 2.8904H2.66986C2.29991 2.8904 2 3.19031 2 3.56026V3.56026C2 3.93021 2.2999 4.23011 2.66986 4.23011H13.3301C13.7001 4.23011 14 3.93021 14 3.56026V3.56026C14 3.19031 13.7001 2.8904 13.3301 2.8904H11.7779ZM6.90625 2.41193C6.90625 2.14768 7.12047 1.93346 7.38472 1.93346H8.61528C8.87953 1.93346 9.09375 2.14768 9.09375 2.41193V2.41193C9.09375 2.67618 8.87953 2.8904 8.61528 2.8904H7.38472C7.12047 2.8904 6.90625 2.67618 6.90625 2.41193V2.41193Z" fill="#FE3D1E"/>
</svg>
